# xmcd CD database file
#
# Track frame offsets:
#	150
#	13242
#	37977
#	49395
#	68915
#	79807
#	90815
#	108642
#	120770
#	135050
#
# Disc length: 1978 seconds
#
# Revision: 0
# Processed by: cddbd v1.5.2PL0 Copyright (c) Steve Scherf et al.
# Submitted via: CDex 1.70beta2
#
DISCID=7107b80a
DTITLE=Wiseman, Mac - USA - Maple On The Hill
DYEAR=1900
DGENRE=Country
TTITLE0=Maple On the Hill
TTITLE1=Picture From Life's Other Side
TTITLE2=Blues In My Mind
TTITLE3=Tramp On the Street
TTITLE4=Remembering
TTITLE5=If Teardrops Were Pennies
TTITLE6=Don't Make Me Go To Bed and I'll Br Good)
TTITLE7=You Are My Sunshine
TTITLE8=Mansion On the Hill
TTITLE9=Let's Say Goodbye
EXTD=
EXTT0=
EXTT1=
EXTT2=
EXTT3=
EXTT4=
EXTT5=
EXTT6=
EXTT7=
EXTT8=
EXTT9=
PLAYORDER=
